<svg version="1" xmlns="http://www.w3.org/2000/svg" width="933.333" height="933.333" viewBox="0 0 700.000000 700.000000"><path d="M319.5 16c-40.7 4.2-80.4 15.9-116 34.3-32.8 17.1-56.6 34.8-83.1 61.8-43.8 44.8-72.6 99.4-84.8 160.9-5.9 29.6-7.5 68.3-4.1 97.5C42.8 468 96.1 553.2 178.6 605.7c39.4 25.1 82.7 40.5 133.4 47.5 14.7 2 63.2 1.7 79-.6 87.8-12.4 162.6-56.3 214.8-125.9 52.9-70.6 74.1-159.2 59.1-246.7C650.3 195.3 602 120.3 530 70.8c-41-28.3-87.3-45.9-140-53.4-12.7-1.8-57.7-2.7-70.5-1.4zM385 31.6c56.7 6.4 109.2 28.3 156 65.2 5.2 4.1 16.7 14.7 25.5 23.6 26.5 26.5 47.1 56.3 61.8 89.1 20.1 45 28.8 91.3 26.5 141.1-4.4 96.7-55.4 185.7-137.3 239.9-51.6 34.2-115.2 52.2-176.5 50.1-46.6-1.5-84.8-11.1-126.5-31.6-19.9-9.7-33.4-18-50-30.6C102.7 531.7 60 460.7 47.6 384c-3.7-22.7-4.8-55.1-2.6-77.1 5.9-59.6 28.7-115.7 66.1-162.9 10.7-13.6 35.6-38.3 48.9-48.6C209.6 57 265.2 35 326 30c13.5-1.1 41.8-.3 59 1.6z"/><path d="M329 77.6c-1.9.2-7.3.9-12 1.5-73.3 8.9-141.3 51.5-182.6 114.4-26.9 40.8-40.7 84.9-42.1 134-.7 23.2.5 37.2 4.8 58.8 15 75.6 64.5 141.5 133.2 177.2 57.5 30 120.8 37.2 184.3 21 17.8-4.6 29.9-9.1 48.9-18.5 76-37.3 127.7-108.1 141.2-193 2.8-17.7 2.5-60.8-.4-78-4.9-27.8-12.4-51-24.4-75-13.2-26.3-28.3-47.2-49.1-67.7-40.7-40.4-89.3-64.4-147.2-72.9-9.8-1.4-47.5-2.7-54.6-1.8zm43 15.5c111.1 10.2 201 95.3 218.2 206.3 3 19.8 3.1 52.3 0 71.3-13 80.7-61 146.4-133.2 182.2-92.4 45.9-205.1 27.7-278.1-44.9-47.4-47.2-72.2-106.5-72.2-173 0-40.5 8.2-74.4 26.9-111.1 23.6-46.4 61.3-83.5 108.9-107 40.8-20.1 83.9-28 129.5-23.8z"/><path d="M351 117.7c-51.2 3.6-87.9 14.7-121.5 36.9-17.1 11.3-36.8 29.4-50.8 46.6-4.8 6-7.8 8.8-9.2 8.8-5.4 0-8.9 6.2-5.9 10.8 1.4 2.2 80.6 84.1 120.1 124.3 13.1 13.4 14.3 14.8 13.7 17.5-.9 4.6 1.3 15.1 4.5 22.1 3.7 7.8 13.4 17.9 20.9 21.7 2.9 1.5 8 3.4 11.5 4.2 13.9 3.6 30.6-1.6 41.9-13.1l3.8-3.8 69.7-7.7c38.4-4.2 70.8-8.2 72-8.8 4.6-2.5 5.4-6.8 2.1-10.7-2.2-2.5-4-2.9-71.2-12.9-60.9-9-68.9-10.4-69.9-12.1-1.8-3.4-10-11.6-14.4-14.7l-4.3-2.9V117l-4.2.2c-2.4.1-6.3.3-8.8.5zm-1 107.7v93.3l-9.7.5-9.7.5-6.7-4.6-6.6-4.6-40.2-71.4c-36.5-65.1-39.9-71.5-38.3-72.7 4.9-3.6 18.7-11.3 27.2-15 23-10.1 48.4-16.2 78.5-18.7 2.2-.2 4.3-.4 4.8-.5.4-.1.7 41.8.7 93.2zm-8.5 122c10.5 4.4 7.3 19.5-4.1 19.6-10.8 0-13.9-14.5-4.2-19.3 4.1-2 4.1-2 8.3-.3z"/></svg>